{
    "asset": {
        "version": "2.0",
        "generator": "Open Asset Import Library (assimp v5.0.5eb040c7)"
    },
    "accessors": [
        {
            "bufferView": 0,
            "byteOffset": 0,
            "componentType": 5126,
            "count": 4537,
            "type": "VEC3",
            "max": [
                8.859987258911133,
                3.7909319400787355,
                5.815953254699707
            ],
            "min": [
                -1.3795459270477296,
                0.03678299859166145,
                -0.3691299855709076
            ]
        },
        {
            "bufferView": 1,
            "byteOffset": 0,
            "componentType": 5126,
            "count": 4537,
            "type": "VEC2",
            "max": [
                1.0,
                1.0
            ],
            "min": [
                0.0,
                0.0
            ]
        },
        {
            "bufferView": 2,
            "byteOffset": 0,
            "componentType": 5125,
            "count": 26112,
            "type": "SCALAR",
            "max": [
                4536
            ],
            "min": [
                0
            ]
        },
        {
            "bufferView": 3,
            "byteOffset": 0,
            "componentType": 5126,
            "count": 441,
            "type": "VEC3",
            "max": [
                200.0,
                0.0,
                200.0
            ],
            "min": [
                -200.0,
                0.0,
                -200.0
            ]
        },
        {
            "bufferView": 4,
            "byteOffset": 0,
            "componentType": 5126,
            "count": 441,
            "type": "VEC2",
            "max": [
                1.0,
                1.0
            ],
            "min": [
                0.0,
                0.0
            ]
        },
        {
            "bufferView": 5,
            "byteOffset": 0,
            "componentType": 5125,
            "count": 2400,
            "type": "SCALAR",
            "max": [
                440
            ],
            "min": [
                0
            ]
        }
    ],
    "buffers": [
        {
            "byteLength": 213608,
            "uri": "result.bin"
        }
    ],
    "bufferViews": [
        {
            "buffer": 0,
            "byteOffset": 0,
            "byteLength": 54444,
            "target": 34962
        },
        {
            "buffer": 0,
            "byteOffset": 54444,
            "byteLength": 36296,
            "target": 34962
        },
        {
            "buffer": 0,
            "byteOffset": 90740,
            "byteLength": 104448,
            "target": 34963
        },
        {
            "buffer": 0,
            "byteOffset": 195188,
            "byteLength": 5292,
            "target": 34962
        },
        {
            "buffer": 0,
            "byteOffset": 200480,
            "byteLength": 3528,
            "target": 34962
        },
        {
            "buffer": 0,
            "byteOffset": 204008,
            "byteLength": 9600,
            "target": 34963
        }
    ],
    "materials": [
        {
            "name": "DefaultMaterial",
            "pbrMetallicRoughness": {
                "baseColorFactor": [
                    0.6000000238418579,
                    0.6000000238418579,
                    0.6000000238418579,
                    1.0
                ],
                "metallicFactor": 0.0
            }
        },
        {
            "name": "Mat",
            "pbrMetallicRoughness": {
                "baseColorFactor": [
                    0.6000000238418579,
                    0.6000000238418579,
                    0.6000000238418579,
                    1.0
                ],
                "metallicFactor": 0.0
            }
        }
    ],
    "meshes": [
        {
            "name": "Null HyperNURBS",
            "primitives": [
                {
                    "mode": 4,
                    "material": 1,
                    "indices": 2,
                    "attributes": {
                        "POSITION": 0,
                        "TEXCOORD_0": 1
                    }
                }
            ]
        },
        {
            "name": "Plane",
            "primitives": [
                {
                    "mode": 4,
                    "material": 1,
                    "indices": 5,
                    "attributes": {
                        "POSITION": 3,
                        "TEXCOORD_0": 4
                    }
                }
            ]
        }
    ],
    "nodes": [
        {
            "name": "input.obj",
            "children": [
                1,
                2
            ]
        },
        {
            "name": "Null HyperNURBS",
            "mesh": 0
        },
        {
            "name": "Plane",
            "mesh": 1
        }
    ],
    "scenes": [
        {
            "nodes": [
                0
            ]
        }
    ],
    "scene": 0
}